<?xml version="1.0" encoding="utf-8"?>
<!-- Generator: Adobe Illustrator 27.5.0, SVG Export Plug-In . SVG Version: 6.00 Build 0)  -->
<svg version="1.1" id="Layer_1" xmlns="http://www.w3.org/2000/svg" xmlns:xlink="http://www.w3.org/1999/xlink" x="0px" y="0px"
	 viewBox="0 0 216.929 279.304" style="enable-background:new 0 0 216.929 279.304;" xml:space="preserve">
<g>
	<g>
		<path style="fill:#AC4A26;" d="M111.94,193.236l-60.991-2.069l18.191,71.775c0,0,2.099,9.444,13.293,11.333
			c7.735,1.305,21.645,0.806,29.507,0.374c7.861,0.433,21.772,0.931,29.506-0.374c11.194-1.889,13.293-11.333,13.293-11.333
			l18.191-71.775L111.94,193.236z"/>
		<path style="fill:#AC4A26;" d="M72.352,254.449c-2.153-8.803-4.269-17.615-6.277-26.452c-1.996-8.782-3.884-17.589-5.596-26.431
			c-0.653-3.374-1.27-6.755-1.868-10.139l-7.662-0.26l18.19,71.775c0,0,1.357,6.035,7.624,9.42
			C75.289,266.392,73.813,260.422,72.352,254.449z"/>
		<path style="fill:#AC4A26;" d="M153.653,191.821c-0.403,2.249-0.813,4.494-1.184,6.738c-1.349,8.161-2.596,16.338-3.94,24.5
			c-1.322,8.026-2.91,16.007-4.129,24.05c-1.195,7.892-2.173,15.815-3.35,23.71c-0.179,1.2-0.365,2.398-0.554,3.596
			c0.32-0.046,0.647-0.089,0.949-0.14c11.194-1.889,13.293-11.333,13.293-11.333l18.19-71.775L153.653,191.821z"/>
		<path style="fill:#AC4A26;" d="M59.995,210.357c4.204,1.416,8.586,2.277,12.975,2.876c8.545,1.167,17.186,1.297,25.796,1.405
			c12.154,0.153,24.312-0.179,36.431-1.148c6.784-0.543,13.553-1.284,20.289-2.262c4.259-0.618,8.536-1.101,12.795-1.718
			l4.648-18.343l-60.99,2.069l-60.991-2.069l4.384,17.3C56.847,209.201,58.416,209.825,59.995,210.357z"/>
		<g>
			<path style="fill:#F3693B;" d="M75.508,177.231H43.245c0,0-1.646,12.62,5.926,16.899c7.572,4.28,93.434,6.81,115.88,2.634
				c14.156-2.634,15.582-19.533,15.582-19.533H75.508z"/>
			<ellipse style="fill:#AC4A26;" cx="111.94" cy="177.231" rx="68.694" ry="8.12"/>
			<ellipse style="fill:#6C2A09;" cx="111.94" cy="177.308" rx="55.344" ry="4.887"/>
		</g>
	</g>
	<g>
		<path style="fill:#2E4A17;" d="M213.582,71.496c-0.687-2.696-5.277-3.717-7.455-4.494c-3.936-1.403-7.98-2.494-12.077-3.31
			c-8.276-1.648-16.777-2.264-25.202-1.753c-15.664,0.951-31.994,5.95-44.428,15.809c-6.309,5.003-10.918,11.368-14.924,18.284
			c-0.442,0.763-0.872,1.536-1.292,2.313c-0.839-4.546-2.407-8.921-5.093-12.844c-4.552-6.651-11.862-9.906-19.813-9.881
			c-16.819,0.052-32.42,10.765-42.965,23.107c-10.815,12.657-17.782,27.871-22.94,43.572c-1.139,3.465-5.453,15.319,0.935,16.443
			c2.7,0.475,5.298-1.789,7.116-3.475c2.123-1.969,3.904-4.26,6.044-6.21c8.65-7.882,18.728-14.64,29.812-18.549
			c2.415-0.852,4.863-1.635,7.337-2.314c-7.534,4.728-14.477,10.395-20.29,16.962C37.24,157.7,29.039,172.653,25.529,189.08
			c-1.753,8.204-3.926,17.526-0.871,25.682c0.259,0.694,1.004,1.045,1.729,0.836c3.87-1.119,6.058-5.182,8.149-8.319
			c3.232-4.849,7.053-9.415,10.839-13.838c2.315-2.704,4.828-5.079,7.441-7.393c-1.316,3.253-2.415,6.573-3.486,9.652
			c-1.276,3.67-2.858,7.188-4.202,10.826c-1.061,2.873-2.853,7.7-0.374,10.335c2.78,2.955,8.441,0.45,11.453-0.805
			c5.364-2.235,10.575-4.793,15.518-7.856c11.208-6.945,21.25-16.31,30.238-25.899c4.587-4.893,8.891-10.07,13.187-15.222
			c-0.482,1.941-0.978,3.878-1.493,5.809c-1.775,6.662-4.612,13.245-4.886,20.211c-0.067,1.686,2.002,1.052,2.75,0.407
			c4.883-4.209,7.724-10.19,10.762-15.743c2.586-4.728,5.826-9.11,8.302-13.891c2.815,8.257,5.632,16.472,9.21,24.46
			c1.586,3.542,3.353,7.267,6.25,9.94c1.29,1.19,2.842,1.986,4.627,1.509c4.096-1.093,5.074-6.549,5.692-10.065
			c0.983-5.592,1.157-11.334,1.292-16.999c0.048-1.999,0.012-4.031,0.001-6.064c0.223,0.693,0.429,1.378,0.632,2.028
			c1.008,3.208,2.133,6.32,3.374,9.448c3.084,7.78,6.486,15.579,8.55,23.709c1.018,4.014,1.708,8.107,2.219,12.214
			c0.323,2.594-0.013,6.634,1.604,8.883c1.445,2.01,3.984,0.47,5.151-0.987c2.267-2.827,3.675-6.68,5.056-10.002
			c5.934-14.266,8.245-30.23,4.906-45.434c-2.425-11.046-7.457-22.085-14.469-30.972c-3.229-4.092-7.03-7.664-11.288-10.302
			c6.018-4.19,11.757-8.743,17.126-13.763c6.949-6.494,13.108-13.767,19.21-21.045c3.171-3.781,6.314-7.585,9.501-11.352
			C210.771,77.259,214.291,74.274,213.582,71.496z"/>
		<path style="fill:#2E4A17;" d="M196.219,76.662c-4.012,0.269-8.04,0.552-12.038,0.983c-4.893,0.528-9.799,1.585-14.561,2.806
			c-4.769,1.222-9.464,2.748-14.015,4.627c-9.201,3.798-17.795,9.137-24.869,16.174c-0.476,0.473-1.529,0.161-1.438-0.596
			c0.725-6.108,4.209-11.353,8.378-15.713c4.065-4.251,8.835-7.811,13.74-11.031c4.972-3.265,10.129-6.234,15.516-8.762
			c2.582-1.212,5.237-2.346,7.942-3.381c-2.011-0.005-4.021,0.049-6.027,0.17c-15.664,0.951-31.994,5.95-44.428,15.809
			c-6.309,5.003-10.918,11.368-14.924,18.284c-0.442,0.763-0.872,1.536-1.292,2.313c-0.839-4.546-2.407-8.921-5.093-12.844
			c-4.552-6.651-11.862-9.906-19.813-9.881c-9.517,0.029-18.643,3.476-26.685,8.697c0.34-0.037,0.677-0.1,1.017-0.131
			c2.406-0.217,4.883-0.309,7.288-0.027c1.908,0.223,3.812,0.693,5.668,1.176c4.765,1.24,9.527,2.941,13.777,5.455
			c3.62,2.141,7.444,5.255,8.202,9.641c0.084,0.487-0.218,1.121-0.813,1.066c-9.476-0.878-18.862,1.726-27.453,5.559
			c-13.501,6.024-26.22,14.432-35.043,26.482c-5.515,7.532-9.229,16.096-11.273,25.097c0.12,0.031,0.217,0.084,0.346,0.107
			c2.7,0.475,5.298-1.789,7.116-3.475c2.123-1.969,3.904-4.26,6.044-6.21c8.65-7.882,18.728-14.64,29.812-18.549
			c2.415-0.852,4.863-1.635,7.337-2.314c-2.079,1.305-4.108,2.688-6.086,4.135c3.064-1.424,6.222-2.66,9.501-3.44
			c4.451-1.058,9.237-1.264,13.416,0.855c0.573,0.29,0.523,1.151,0,1.455c-7.637,4.435-14.932,9.469-21.774,15.053
			c-12.693,10.359-24.216,22.716-31.939,37.266c-3.754,7.072-6.537,14.688-7.812,22.608c-0.212,1.32-0.362,2.646-0.484,3.974
			c0.243,1.585,0.629,3.145,1.198,4.664c0.259,0.694,1.004,1.045,1.729,0.836c3.87-1.119,6.058-5.182,8.149-8.319
			c3.125-4.687,6.799-9.107,10.461-13.391c3.806-5.485,8.269-10.535,12.9-15.309c4.406-4.543,9.328-8.633,14.603-12.13
			c5.125-3.398,10.754-6.367,16.793-7.719c0.557-0.125,1.298,0.4,1.036,1.036c-2.752,6.698-6.993,12.647-11.437,18.317
			c-4.036,5.15-8.355,10.068-12.406,15.206c-3.859,4.895-7.494,9.962-11.261,14.927c-2.534,3.341-5.137,6.697-7.864,9.951
			c2.897,0.447,6.604-1.176,8.846-2.11c5.364-2.235,10.575-4.793,15.518-7.856c11.208-6.945,21.25-16.31,30.238-25.899
			c3.943-4.207,7.676-8.624,11.376-13.054c0.723-1.059,1.47-2.1,2.245-3.111c3.283-4.287,7.049-8.353,11.522-11.422
			c0.608-0.417,1.45,0.277,1.237,0.951c-1.216,3.858-2.736,7.61-4.442,11.276c-4.326,9.292-9.823,18.026-14.364,27.209
			c0.65,0.099,1.542-0.264,1.982-0.644c4.883-4.209,7.724-10.19,10.762-15.743c2.586-4.728,5.826-9.11,8.302-13.891
			c2.815,8.257,5.632,16.472,9.21,24.46c1.586,3.542,3.353,7.267,6.25,9.94c1.29,1.19,2.842,1.986,4.627,1.509
			c4.096-1.093,5.074-6.549,5.692-10.065c0.983-5.592,1.157-11.334,1.292-16.999c0.048-1.999,0.012-4.031,0.001-6.064
			c0.223,0.693,0.429,1.378,0.632,2.028c1.008,3.208,2.133,6.32,3.374,9.448c1.667,4.204,3.42,8.415,5.01,12.68
			c-0.742-5.153-1.604-10.285-2.857-15.344c-2.149-8.673-6.027-16.787-8.399-25.391c-0.221-0.803,0.82-1.428,1.408-0.82
			c5.326,5.505,9.99,11.658,13.656,18.392c6.087,11.182,9.256,23.714,9.7,36.413c0.21,6.005-0.192,12.003-1.042,17.942
			c0.014-0.018,0.034-0.035,0.048-0.052c2.267-2.827,3.675-6.68,5.056-10.002c5.934-14.266,8.245-30.23,4.906-45.434
			c-2.425-11.046-7.457-22.085-14.469-30.972c-3.229-4.092-7.03-7.664-11.288-10.302c6.018-4.19,11.757-8.743,17.126-13.763
			c6.949-6.494,13.108-13.767,19.21-21.045c3.171-3.781,6.314-7.585,9.501-11.352c0.671-0.793,1.716-1.806,2.625-2.926
			C206.641,76.07,201.416,76.313,196.219,76.662z"/>
		<path style="fill:#648833;" d="M184.506,145.138c-1.906-2.974-3.91-5.944-6.019-8.776c-4.444-5.965-9.862-11.25-16.131-15.28
			c-4.84-3.112-10.462-5.495-16.307-6.991c2.308-1.151,4.601-2.334,6.852-3.596c5.946-3.335,11.725-7.053,17.344-10.908
			c2.132-1.463,15.467-9.552,10.874-13.232c-1.844-1.477-4.714-0.944-6.834-0.535c-3.263,0.63-6.532,1.193-9.766,1.968
			c-7.343,1.76-14.489,4.232-21.335,7.417c-5.268,2.451-10.192,5.363-14.851,8.725c4.49-6.136,8.644-12.529,12.635-18.981
			c8.327-13.46,16.497-27.002,22.667-41.615c1.822-4.315,3.309-8.765,5.158-13.065c1.871-4.352,4.055-8.571,5.557-13.074
			c0.47-1.41-0.707-2.166-1.973-1.969c-7.717,1.2-14.614,7.474-20.446,12.272c-6.947,5.714-13.018,12.376-18.424,19.55
			c-5.415,7.186-10.11,14.925-14.031,23.023c-2.328,4.808-4.124,9.779-5.569,14.862c-0.007-0.121-0.004-0.241-0.012-0.362
			c-0.786-12.142-3.925-23.901-7.816-35.382c-6.309-18.62-19.063-36.6-38.594-42.603C61.931,4.879,56.047,4.012,50.235,4.22
			c-6.032,0.216-11.989,1.796-17.708,3.62c-3.804,1.214-7.631,2.503-11.339,3.992c-1.754,0.704-6.527,2.487-5.509,5.234
			c0.902,2.435,5.362,2.435,7.464,2.599c4.447,0.348,8.763,1.526,12.796,3.457c9.49,4.543,17.297,11.682,23.943,19.745
			c13.734,16.66,20.685,37.816,23.462,59.082c-5.267-5.225-13.102-7.627-20.557-8.657c-12.342-1.705-25.426-0.65-37.255,3.24
			c-7.823,2.573-15.078,6.651-21.344,11.995c-0.616,0.525-1.676,2.345-0.146,2.599c3.267,0.544,6.728-0.928,9.943-1.489
			c3.799-0.664,7.642-1.137,11.503-1.169c7.102-0.059,14.164,1.264,20.921,3.397c11.427,3.608,22.775,9.713,31.987,17.403
			c3.852,3.215,7.44,6.963,9.95,11.335c-6.418-0.962-14.074,3.192-19.082,6.056c-9.39,5.371-17.561,12.101-23.825,21.001
			c-3.626,5.151-7.878,10.826-8.309,17.335c-0.084,1.265,1.301,1.382,2.174,1.05c3.932-1.492,6.967-4.566,10.063-7.297
			c3.709-3.273,8.026-5.958,12.362-8.316c7.158-3.892,14.808-6.915,22.704-8.953c-6.731,6.101-11.049,14.675-14.017,23.218
			c-2.005,5.772-3.441,11.738-4.513,17.75c-0.515,2.884-0.936,5.785-1.266,8.696c-0.298,2.636-0.803,5.491-0.392,8.133
			c0.875,5.623,6.499,1.31,8.488-1.015c4.392-5.137,7.701-11.27,11.07-17.089c4.458-7.698,8.692-15.523,13.109-23.245
			c4.153-7.261,8.529-14.392,12.247-21.892c1.228-2.475,2.402-5.008,3.471-7.589c1.362,2.672,2.482,5.456,3.518,8.274
			c2.492,6.779,4.407,13.751,6.268,20.724c1.954,7.326,3.897,14.654,5.854,21.979c1.582,5.923,3.512,11.81,4.559,17.855
			c0.676,3.905,1.201,10.117,5.364,11.949c0.835,0.367,2.168-0.273,2.708-0.907c5.264-6.176,6.527-14.742,8.154-22.433
			c1.913-9.043,2.675-18.392,1.761-27.606c-0.842-8.5-3.502-16.817-7.965-24.123c-4.156-6.805-10.021-12.007-16.727-16.201
			c-0.647-0.405-1.408-0.88-2.235-1.374c7.275,0.088,14.58,1.094,21.609,2.46c6.917,1.345,13.876,2.751,20.486,5.248
			c7.182,2.713,12.727,7.06,18.504,11.985c1.183,1.009,3.762-0.624,3.656-2.076C187.897,150.857,186.287,147.916,184.506,145.138z"
			/>
		<path style="fill:#648833;" d="M184.506,145.138c-0.175-0.273-0.363-0.543-0.54-0.817c-6.284-6.072-13.961-10.792-22.05-13.835
			c-11.163-4.199-23.991-5.599-35.278-1.067c-0.842,0.338-1.33-0.844-0.82-1.408c2.215-2.448,4.745-4.596,7.493-6.422
			c4.739-3.148,10.11-5.379,15.701-6.619c-0.984-0.307-1.964-0.624-2.963-0.88c2.308-1.151,4.601-2.334,6.852-3.596
			c5.946-3.335,11.725-7.053,17.344-10.908c1.747-1.199,11.009-6.844,11.773-10.87c-7.781,2.405-15.33,5.587-22.954,8.419
			c-12.833,4.768-27.385,10.874-34.532,23.325c-0.476,0.828-1.814,0.268-1.54-0.649c0.918-3.074,2.244-6.02,3.795-8.825
			c2.207-3.994,4.885-7.75,7.874-11.221c-2.163,1.306-4.277,2.684-6.329,4.165c4.49-6.136,8.644-12.529,12.635-18.981
			c8.327-13.46,16.497-27.002,22.667-41.615c1.822-4.315,3.309-8.765,5.158-13.065c1.871-4.352,4.055-8.571,5.557-13.074
			c0.395-1.184-0.375-1.899-1.381-1.983c-0.378,0.284-0.767,0.56-1.138,0.848c-6.374,4.937-12.061,10.735-17.385,16.772
			c-5.485,6.22-10.594,12.727-15.241,19.599c-5.523,8.169-10.457,16.775-14.376,25.832c-1.948,4.503-3.367,9.064-4.547,13.822
			c-1.1,4.433-2.164,8.876-3.948,13.094c-0.295,0.699-1.364,0.432-1.539-0.201c-1.273-4.589-1.019-9.533-0.56-14.221
			c0.396-4.042,1.054-8.049,1.674-12.06c-0.73,2.059-1.404,4.135-2.002,6.235c-0.007-0.121-0.004-0.241-0.012-0.362
			c-0.786-12.142-3.925-23.901-7.816-35.382c-6.309-18.62-19.063-36.6-38.594-42.603C61.931,4.879,56.047,4.012,50.235,4.22
			c-6.032,0.216-11.989,1.796-17.708,3.62c-0.784,0.25-1.568,0.523-2.353,0.781c3.642-0.467,7.328-0.574,11.013-0.224
			c8.537,0.811,16.671,3.986,23.441,9.259c7.44,5.794,12.836,13.844,16.885,22.273c8.509,17.715,11.743,38.524,8.815,57.969
			c-0.141,0.934-1.35,0.653-1.624,0c-1.325-3.145-2.086-6.482-3.102-9.731c-1.701-5.438-4.619-10.211-8.68-14.149
			c3.118,9.032,5.186,18.469,6.422,27.931c-5.255-5.214-13.068-7.615-20.509-8.649c2.438,1.126,4.809,2.39,7.079,3.803
			c9.063,5.644,16.806,13.853,20.043,24.198c0.208,0.666-0.636,1.387-1.237,0.951c-5.68-4.113-11.494-8.099-17.773-11.251
			c-5.346-2.684-11.014-4.663-16.898-5.766c-6.669-1.25-13.505-1.306-20.266-1.103c-9.932,0.299-20.021,1.531-29.591,4.394
			c0,0,0,0,0,0c-0.616,0.525-1.676,2.345-0.146,2.599c3.267,0.544,6.728-0.928,9.943-1.489c3.799-0.664,7.642-1.137,11.503-1.169
			c7.102-0.059,14.164,1.264,20.921,3.397c11.427,3.608,22.775,9.713,31.987,17.403c3.852,3.215,7.44,6.963,9.95,11.335
			c-4.055-0.608-8.604,0.828-12.667,2.689c5.373-0.989,10.954-0.321,14.805,4.099c0.399,0.458,0.28,1.247-0.371,1.408
			c-5.045,1.248-9.977,2.962-14.742,5.035c-9.309,4.05-18.23,9.415-25.66,16.378c-4.838,4.534-9.07,9.879-11.711,15.936
			c0.419,0.095,0.91,0.045,1.302-0.104c3.932-1.492,6.967-4.566,10.063-7.297c3.709-3.273,8.026-5.958,12.362-8.316
			c7.158-3.892,14.808-6.915,22.704-8.953c-6.731,6.101-11.049,14.675-14.017,23.218c-2.005,5.772-3.441,11.738-4.513,17.75
			c-0.515,2.884-0.936,5.785-1.266,8.696c-0.298,2.636-0.803,5.491-0.392,8.133c0.428,2.749,1.991,3.116,3.709,2.509
			c1.845-7.572,4.773-14.952,7.66-22.053c2.438-5.997,4.817-12.023,7.507-17.913c2.88-6.308,6.055-12.482,9.54-18.478
			c3.259-5.608,6.685-11.299,10.681-16.42c1.165-1.494,3.229-4.106,5.461-3.375c1.905,0.624,2.321,3.288,2.545,4.972
			c0.104,0.787,0.172,1.579,0.215,2.374c0.36-0.813,0.728-1.622,1.069-2.446c1.362,2.672,2.482,5.456,3.518,8.274
			c2.492,6.779,4.407,13.751,6.268,20.724c1.954,7.326,3.897,14.654,5.854,21.979c1.582,5.923,3.512,11.81,4.559,17.855
			c0.676,3.905,1.201,10.117,5.364,11.949c0.835,0.367,2.168-0.273,2.708-0.907c1.565-1.835,2.746-3.898,3.719-6.07
			c0.55-7.309,0.883-14.603,0.443-21.947c-0.506-8.447-1.902-17.018-4.429-25.107c-4.391-14.059-13.065-25.998-24.505-35.184
			c-0.52-0.418-0.179-1.239,0.372-1.408c3.46-1.059,6.972-0.973,10.365-0.161c-0.249-0.16-0.49-0.329-0.742-0.486
			c-0.647-0.405-1.408-0.88-2.235-1.374c7.275,0.088,14.58,1.094,21.609,2.46c6.917,1.345,13.876,2.751,20.486,5.248
			c7.182,2.713,12.727,7.06,18.504,11.985c1.183,1.009,3.762-0.624,3.656-2.076C187.897,150.857,186.287,147.916,184.506,145.138z"
			/>
		<g>
			<path style="fill:#69AC45;" d="M151.007,117.902c-0.467-0.249-0.945-0.456-1.429-0.643c-13.153-5.905-30.99-4.656-41.293,5.873
				c0.228-1.73,0.773-3.471,1.212-5.029c0.755-2.689,1.646-5.361,2.002-8.142c0.758-5.933,1.156-13.071-2.462-18.194
				c-0.874-1.238-2.699-0.421-3.524,0.371c-2.305,2.212-2.354,5.479-2.455,8.459c-0.148,4.351-0.79,8.672-1.023,13.02
				c-0.103,1.924-0.182,3.941-0.185,5.989c-5.189-4.007-12.341-6.219-18.181-7.11c-9.348-1.426-18.518,1.534-26.497,6.364
				c-4.264,2.581-8.55,6.055-10.81,10.6c-0.232,0.465-0.335,1.281,0.384,1.413c4.712,0.859,9.191-2.246,13.777-2.984
				c5.947-0.957,12.024-1.182,18.013-0.502c5.579,0.633,11.174,1.639,16.444,3.628c2.351,0.888,4.783,1.933,6.645,3.67
				c1.694,1.581,2.916,3.649,4.327,5.471c0.038,0.049,0.09,0.067,0.13,0.111c-0.092,3.732-0.528,7.485-0.814,11.167
				c-0.388,4.982-0.501,9.89-0.087,14.872c0.621,7.48,0.748,16.005,5.262,22.368c1.014,1.429,3.632,0.109,3.966-1.307
				c0.539-2.286,0.53-4.521,0.463-6.855c-0.075-2.612,0.075-5.212,0.23-7.819c0.303-5.101,0.73-10.195,0.971-15.299
				c0.309-6.542,0.563-14.108-2.104-20.331c5.208,0.812,9.847,3.944,13.78,7.561c5.201,4.782,9.094,10.699,12.981,16.537
				c1.298,1.951,4.625-0.511,4.252-2.395c-1.634-8.244-5.132-16.287-11.267-22.173c-3.158-3.03-7.171-5.561-11.51-6.418
				c-3.181-0.628-6.35-0.399-9.521-0.06c5.195-2.878,10.529-5.539,16.213-7.255c3.033-0.916,6.116-1.777,9.236-2.339
				c2.748-0.494,5.875-0.847,8.574,0.116c0.397,0.176,0.806,0.339,1.192,0.528C149.753,122.071,153.104,119.017,151.007,117.902z"/>
			<path style="fill:#69AC45;" d="M140.837,116.667c-3.069-0.448-6.083-0.698-9.187-0.445c-4.33,0.354-8.729,1.362-12.686,3.181
				c-3.631,1.668-7.098,4.117-8.78,7.859c-0.413,0.918-1.729,0.228-1.54-0.649c0.376-1.746,0.908-3.538,1.588-5.282
				c-0.673,0.568-1.325,1.166-1.947,1.801c0.228-1.73,0.773-3.471,1.212-5.029c0.755-2.689,1.646-5.361,2.002-8.142
				c0.758-5.933,1.156-13.071-2.462-18.194c-0.056-0.08-0.127-0.129-0.19-0.192c-0.082,0.262-0.175,0.521-0.253,0.783
				c-1.419,4.834-2.286,10.083-2.328,15.128c-0.048,5.826,1.069,11.951-0.749,17.619c-0.173,0.539-0.993,0.904-1.408,0.372
				c-1.47-1.884-2.421-4.137-3.095-6.455c-2.423-1.721-5.189-3.102-8.04-4.149c3.697,1.745,6.973,4.387,8.35,8.387
				c0.26,0.755-0.631,1.237-1.238,0.951c-3.789-1.784-7.858-2.949-11.974-3.687c-8.026-1.44-16.483-1.28-24.401,0.71
				c-6.437,1.618-12.741,4.604-17.367,9.415c0.088,0.108,0.215,0.19,0.402,0.224c4.712,0.859,9.191-2.246,13.777-2.984
				c5.947-0.957,12.024-1.182,18.013-0.502c5.579,0.633,11.174,1.639,16.444,3.628c2.351,0.888,4.783,1.933,6.645,3.67
				c0.836,0.781,1.557,1.681,2.243,2.611c1.28-1.3,2.785-2.383,4.526-2.885c0.393-0.113,0.972,0.141,1.037,0.589
				c0.7,4.951,1.176,9.929,1.453,14.921c0.253,4.537,0.353,9.08,0.348,13.624c-0.004,4.402-0.181,8.801-0.108,13.202
				c0.07,4.166,0.249,8.34,0.271,12.508c1.186,0.203,2.76-0.811,3.014-1.888c0.539-2.286,0.53-4.521,0.463-6.855
				c-0.075-2.612,0.075-5.212,0.23-7.819c0.303-5.101,0.73-10.195,0.971-15.299c0.309-6.542,0.563-14.108-2.104-20.331
				c5.208,0.812,9.847,3.944,13.78,7.561c5.201,4.782,9.094,10.699,12.981,16.537c0.966,1.451,3.052,0.46,3.905-0.919
				c-0.096-0.574-0.165-1.152-0.294-1.72c-3.342-14.801-17.231-27.286-32.928-25.25c-0.704,0.091-1.145-1.008-0.596-1.438
				c0.881-0.69,1.837-1.278,2.825-1.808c-0.319,0.031-0.639,0.055-0.958,0.089c5.195-2.878,10.529-5.539,16.213-7.255
				c3.033-0.916,6.116-1.777,9.236-2.339c2.748-0.494,5.875-0.847,8.574,0.116c0.397,0.176,0.806,0.339,1.192,0.528
				c1.415,0.692,3.695-0.921,3.767-2.221C148.134,117.874,144.483,117.199,140.837,116.667z"/>
		</g>
		<g>
			<path style="fill:#69AC45;" d="M191.253,62.296c-0.41-0.218-0.83-0.401-1.255-0.564c-11.552-5.186-27.218-4.09-36.267,5.158
				c0.2-1.519,0.679-3.048,1.064-4.417c0.663-2.361,1.446-4.708,1.758-7.151c0.666-5.211,1.015-11.48-2.162-15.98
				c-0.767-1.087-2.371-0.37-3.096,0.326c-2.024,1.943-2.067,4.812-2.156,7.429c-0.13,3.822-0.694,7.617-0.898,11.435
				c-0.09,1.69-0.16,3.461-0.163,5.26c-4.557-3.52-10.839-5.462-15.968-6.244c-8.21-1.253-16.265,1.347-23.272,5.589
				c-3.745,2.267-7.509,5.318-9.495,9.31c-0.203,0.409-0.294,1.125,0.337,1.241c4.138,0.754,8.072-1.973,12.1-2.621
				c5.223-0.84,10.56-1.038,15.821-0.441c4.9,0.556,9.814,1.439,14.443,3.187c2.064,0.779,4.201,1.698,5.836,3.224
				c1.488,1.388,2.561,3.205,3.8,4.805c0.033,0.043,0.079,0.059,0.115,0.097c-0.081,3.278-0.464,6.573-0.715,9.807
				c-0.341,4.375-0.44,8.686-0.077,13.062c0.546,6.57,0.657,14.057,4.622,19.645c0.89,1.255,3.19,0.095,3.484-1.148
				c0.473-2.007,0.465-3.97,0.407-6.021c-0.066-2.294,0.066-4.578,0.202-6.867c0.266-4.48,0.641-8.954,0.853-13.437
				c0.272-5.746,0.494-12.391-1.848-17.856c4.574,0.713,8.648,3.464,12.103,6.641c4.568,4.2,7.987,9.397,11.401,14.524
				c1.14,1.713,4.062-0.449,3.734-2.104c-1.435-7.24-4.508-14.304-9.896-19.474c-2.773-2.661-6.298-4.884-10.109-5.636
				c-2.794-0.552-5.577-0.35-8.362-0.053c4.563-2.528,9.248-4.865,14.24-6.372c2.663-0.804,5.372-1.561,8.112-2.054
				c2.413-0.434,5.16-0.744,7.53,0.102c0.349,0.155,0.708,0.298,1.047,0.463C190.151,65.958,193.095,63.276,191.253,62.296z"/>
			<path style="fill:#69AC45;" d="M182.321,61.212c-2.695-0.393-5.343-0.613-8.069-0.391c-3.803,0.311-7.666,1.197-11.142,2.794
				c-3.189,1.465-6.234,3.616-7.711,6.903c-0.363,0.806-1.519,0.2-1.353-0.57c0.33-1.534,0.798-3.107,1.395-4.639
				c-0.591,0.499-1.164,1.024-1.71,1.582c0.2-1.519,0.679-3.048,1.064-4.417c0.663-2.361,1.446-4.708,1.758-7.151
				c0.666-5.211,1.015-11.48-2.162-15.98c-0.049-0.07-0.111-0.113-0.167-0.168c-0.072,0.23-0.154,0.457-0.222,0.688
				c-1.247,4.246-2.008,8.856-2.045,13.287c-0.042,5.117,0.939,10.497-0.658,15.474c-0.152,0.474-0.872,0.794-1.237,0.326
				c-1.291-1.654-2.126-3.634-2.719-5.669c-2.128-1.511-4.557-2.725-7.061-3.644c3.247,1.533,6.124,3.853,7.334,7.366
				c0.228,0.663-0.554,1.086-1.087,0.836c-3.328-1.567-6.901-2.59-10.516-3.238c-7.049-1.264-14.477-1.124-21.431,0.624
				c-5.653,1.421-11.19,4.044-15.253,8.269c0.077,0.095,0.189,0.167,0.353,0.197c4.138,0.754,8.072-1.973,12.1-2.621
				c5.223-0.84,10.56-1.038,15.821-0.441c4.9,0.556,9.814,1.439,14.443,3.187c2.064,0.779,4.201,1.698,5.836,3.224
				c0.734,0.685,1.368,1.476,1.97,2.293c1.124-1.142,2.446-2.093,3.975-2.534c0.345-0.099,0.854,0.124,0.91,0.517
				c0.615,4.349,1.033,8.72,1.276,13.105c0.222,3.984,0.31,7.975,0.306,11.965c-0.004,3.866-0.159,7.73-0.095,11.595
				c0.061,3.659,0.219,7.325,0.238,10.986c1.042,0.178,2.424-0.712,2.648-1.659c0.473-2.007,0.465-3.97,0.407-6.021
				c-0.066-2.294,0.066-4.578,0.202-6.867c0.266-4.48,0.641-8.954,0.853-13.437c0.272-5.746,0.494-12.391-1.848-17.856
				c4.574,0.713,8.648,3.464,12.103,6.641c4.568,4.2,7.987,9.397,11.401,14.524c0.848,1.274,2.681,0.403,3.429-0.807
				c-0.084-0.504-0.145-1.012-0.258-1.511c-2.935-13-15.134-23.965-28.92-22.177c-0.618,0.08-1.006-0.885-0.523-1.263
				c0.774-0.606,1.614-1.123,2.481-1.588c-0.28,0.027-0.561,0.048-0.842,0.078c4.563-2.528,9.248-4.865,14.24-6.372
				c2.663-0.804,5.372-1.561,8.112-2.054c2.413-0.434,5.16-0.744,7.53,0.102c0.349,0.155,0.708,0.298,1.047,0.463
				c1.243,0.608,3.245-0.809,3.309-1.95C188.73,62.272,185.523,61.679,182.321,61.212z"/>
		</g>
		<g>
			<path style="fill:#69AC45;" d="M86.077,48.982c-0.455,0.098-0.893,0.229-1.323,0.378C72.58,52.843,61.311,63.782,60.356,76.686
				c-0.827-1.291-1.446-2.768-2.034-4.063c-1.015-2.233-1.93-4.531-3.266-6.599c-2.85-4.413-6.626-9.43-11.955-10.821
				c-1.287-0.336-2.051,1.246-2.156,2.245c-0.295,2.79,1.522,5.011,3.141,7.069c2.365,3.005,4.38,6.27,6.686,9.32
				c1.02,1.35,2.109,2.749,3.267,4.126c-5.753,0.248-11.807,2.813-16.232,5.522C30.723,87.82,26.242,95,23.621,102.761
				c-1.401,4.147-2.311,8.907-1.255,13.238c0.108,0.444,0.501,1.05,1.058,0.731c3.65-2.091,4.899-6.713,7.56-9.805
				c3.451-4.01,7.403-7.602,11.809-10.537c4.104-2.734,8.43-5.228,13.095-6.876c2.081-0.735,4.306-1.41,6.539-1.299
				c2.032,0.102,4.024,0.799,6.003,1.223c0.053,0.012,0.098-0.006,0.15,0.001c2.052,2.558,3.884,5.324,5.776,7.958
				c2.561,3.564,5.264,6.923,8.363,10.034c4.653,4.67,9.565,10.322,16.199,12.037c1.489,0.385,2.5-1.984,1.923-3.123
				c-0.775-1.53-1.785-2.821-2.889-4.092c-1.778-2.048-4.513-5.543-6.123-7.726c-2.277-3.086-4.513-6.203-6.844-9.247
				c-3.497-4.567-7.611-9.79-12.925-12.458c3.956-2.404,8.844-2.928,13.533-2.727c6.2,0.265,12.164,2.034,18.079,3.752
				c1.976,0.574,2.816-2.962,1.498-4.016c-5.765-4.609-12.668-8.028-20.12-8.506c-3.836-0.246-7.963,0.327-11.361,2.209
				c-2.491,1.379-4.489,3.328-6.426,5.351c1.858-4.874,3.932-9.681,6.777-14.052c1.518-2.332,3.1-4.656,4.876-6.8
				c1.565-1.888,3.464-3.896,5.822-4.777c0.366-0.107,0.733-0.229,1.099-0.321C87.596,52.492,88.116,48.543,86.077,48.982z"/>
			<path style="fill:#69AC45;" d="M78.232,54.11c-2.432,1.52-4.731,3.264-6.718,5.332c-2.451,2.55-4.598,5.497-6.101,8.693
				c-1.493,3.176-2.433,6.783-1.444,10.248c0.243,0.85-1.032,1.132-1.402,0.436c-0.736-1.385-1.394-2.889-1.925-4.445
				c-0.13,0.762-0.23,1.533-0.287,2.311c-0.827-1.291-1.446-2.768-2.034-4.063c-1.015-2.233-1.93-4.531-3.266-6.599
				c-2.85-4.413-6.626-9.43-11.955-10.821c-0.083-0.022-0.158-0.015-0.236-0.021c0.093,0.222,0.177,0.449,0.274,0.669
				c1.785,4.049,4.175,8.064,7.003,11.475c3.266,3.938,7.486,7.418,9.473,12.253c0.189,0.46-0.154,1.169-0.735,1.047
				c-2.054-0.432-3.968-1.407-5.733-2.581c-2.601,0.217-5.24,0.855-7.747,1.767c3.47-0.922,7.166-1.003,10.355,0.902
				c0.602,0.36,0.277,1.188-0.292,1.34c-3.554,0.948-6.945,2.47-10.127,4.305c-6.203,3.578-11.791,8.475-15.98,14.294
				c-3.405,4.731-5.947,10.306-6.328,16.155c0.12,0.023,0.252,0.006,0.396-0.077c3.65-2.091,4.899-6.713,7.56-9.805
				c3.451-4.01,7.403-7.602,11.809-10.537c4.104-2.734,8.43-5.228,13.095-6.876c2.081-0.735,4.306-1.41,6.539-1.299
				c1.003,0.05,1.997,0.247,2.984,0.483c0.123-1.597,0.52-3.176,1.405-4.5c0.2-0.299,0.732-0.456,1.029-0.192
				c3.274,2.928,6.412,6,9.425,9.195c2.738,2.903,5.379,5.896,7.948,8.949c2.49,2.957,4.862,6.011,7.404,8.925
				c2.406,2.757,4.89,5.458,7.265,8.244c0.911-0.536,1.394-2.107,0.954-2.975c-0.775-1.53-1.785-2.821-2.889-4.092
				c-1.778-2.048-4.513-5.543-6.123-7.726c-2.277-3.086-4.513-6.203-6.844-9.247c-3.497-4.567-7.611-9.79-12.925-12.458
				c3.956-2.404,8.844-2.928,13.533-2.727c6.2,0.265,12.164,2.034,18.079,3.752c1.47,0.427,2.309-1.42,2.101-2.828
				c-0.389-0.331-0.763-0.68-1.171-0.989c-10.625-8.045-27.019-8.562-36.405,1.694c-0.421,0.46-1.34-0.028-1.214-0.628
				c0.201-0.962,0.51-1.898,0.873-2.813c-0.197,0.202-0.398,0.399-0.593,0.603c1.858-4.874,3.932-9.681,6.777-14.052
				c1.518-2.332,3.1-4.656,4.876-6.8c1.565-1.888,3.464-3.896,5.822-4.777c0.366-0.107,0.733-0.229,1.099-0.321
				c1.342-0.336,1.959-2.71,1.272-3.624C84.018,50.639,81.081,52.329,78.232,54.11z"/>
		</g>
	</g>
</g>
</svg>
